<svg viewBox="0 0 1024 1024" xmlns="http://www.w3.org/2000/svg" role="img" aria-label="EARS Bridge app icon"><path d="M 960.00 512.00 L 959.95 613.68 L 959.78 646.15 L 959.51 669.74 L 959.14 688.93 L 958.65 705.38 L 958.05 719.92 L 957.35 733.02 L 956.54 745.01 L 955.61 756.08 L 954.58 766.39 L 953.44 776.06 L 952.18 785.15 L 950.81 793.76 L 949.34 801.92 L 947.74 809.68 L 946.03 817.08 L 944.21 824.15 L 942.27 830.91 L 940.22 837.40 L 938.04 843.61 L 935.74 849.58 L 933.33 855.32 L 930.78 860.83 L 928.12 866.14 L 925.32 871.24 L 922.40 876.16 L 919.35 880.89 L 916.16 885.44 L 912.83 889.82 L 909.37 894.04 L 905.76 898.10 L 902.01 902.01 L 898.10 905.76 L 894.04 909.37 L 889.82 912.83 L 885.44 916.16 L 880.89 919.35 L 876.16 922.40 L 871.24 925.32 L 866.14 928.12 L 860.83 930.78 L 855.32 933.33 L 849.58 935.74 L 843.61 938.04 L 837.40 940.22 L 830.91 942.27 L 824.15 944.21 L 817.08 946.03 L 809.68 947.74 L 801.92 949.34 L 793.76 950.81 L 785.15 952.18 L 776.06 953.44 L 766.39 954.58 L 756.08 955.61 L 745.01 956.54 L 733.02 957.35 L 719.92 958.05 L 705.38 958.65 L 688.93 959.14 L 669.74 959.51 L 646.15 959.78 L 613.68 959.95 L 512.00 960.00 L 410.32 959.95 L 377.85 959.78 L 354.26 959.51 L 335.07 959.14 L 318.62 958.65 L 304.08 958.05 L 290.98 957.35 L 278.99 956.54 L 267.92 955.61 L 257.61 954.58 L 247.94 953.44 L 238.85 952.18 L 230.24 950.81 L 222.08 949.34 L 214.32 947.74 L 206.92 946.03 L 199.85 944.21 L 193.09 942.27 L 186.60 940.22 L 180.39 938.04 L 174.42 935.74 L 168.68 933.33 L 163.17 930.78 L 157.86 928.12 L 152.76 925.32 L 147.84 922.40 L 143.11 919.35 L 138.56 916.16 L 134.18 912.83 L 129.96 909.37 L 125.90 905.76 L 121.99 902.01 L 118.24 898.10 L 114.63 894.04 L 111.17 889.82 L 107.84 885.44 L 104.65 880.89 L 101.60 876.16 L 98.68 871.24 L 95.88 866.14 L 93.22 860.83 L 90.67 855.32 L 88.26 849.58 L 85.96 843.61 L 83.78 837.40 L 81.73 830.91 L 79.79 824.15 L 77.97 817.08 L 76.26 809.68 L 74.66 801.92 L 73.19 793.76 L 71.82 785.15 L 70.56 776.06 L 69.42 766.39 L 68.39 756.08 L 67.46 745.01 L 66.65 733.02 L 65.95 719.92 L 65.35 705.38 L 64.86 688.93 L 64.49 669.74 L 64.22 646.15 L 64.05 613.68 L 64.00 512.00 L 64.05 410.32 L 64.22 377.85 L 64.49 354.26 L 64.86 335.07 L 65.35 318.62 L 65.95 304.08 L 66.65 290.98 L 67.46 278.99 L 68.39 267.92 L 69.42 257.61 L 70.56 247.94 L 71.82 238.85 L 73.19 230.24 L 74.66 222.08 L 76.26 214.32 L 77.97 206.92 L 79.79 199.85 L 81.73 193.09 L 83.78 186.60 L 85.96 180.39 L 88.26 174.42 L 90.67 168.68 L 93.22 163.17 L 95.88 157.86 L 98.68 152.76 L 101.60 147.84 L 104.65 143.11 L 107.84 138.56 L 111.17 134.18 L 114.63 129.96 L 118.24 125.90 L 121.99 121.99 L 125.90 118.24 L 129.96 114.63 L 134.18 111.17 L 138.56 107.84 L 143.11 104.65 L 147.84 101.60 L 152.76 98.68 L 157.86 95.88 L 163.17 93.22 L 168.68 90.67 L 174.42 88.26 L 180.39 85.96 L 186.60 83.78 L 193.09 81.73 L 199.85 79.79 L 206.92 77.97 L 214.32 76.26 L 222.08 74.66 L 230.24 73.19 L 238.85 71.82 L 247.94 70.56 L 257.61 69.42 L 267.92 68.39 L 278.99 67.46 L 290.98 66.65 L 304.08 65.95 L 318.62 65.35 L 335.07 64.86 L 354.26 64.49 L 377.85 64.22 L 410.32 64.05 L 512.00 64.00 L 613.68 64.05 L 646.15 64.22 L 669.74 64.49 L 688.93 64.86 L 705.38 65.35 L 719.92 65.95 L 733.02 66.65 L 745.01 67.46 L 756.08 68.39 L 766.39 69.42 L 776.06 70.56 L 785.15 71.82 L 793.76 73.19 L 801.92 74.66 L 809.68 76.26 L 817.08 77.97 L 824.15 79.79 L 830.91 81.73 L 837.40 83.78 L 843.61 85.96 L 849.58 88.26 L 855.32 90.67 L 860.83 93.22 L 866.14 95.88 L 871.24 98.68 L 876.16 101.60 L 880.89 104.65 L 885.44 107.84 L 889.82 111.17 L 894.04 114.63 L 898.10 118.24 L 902.01 121.99 L 905.76 125.90 L 909.37 129.96 L 912.83 134.18 L 916.16 138.56 L 919.35 143.11 L 922.40 147.84 L 925.32 152.76 L 928.12 157.86 L 930.78 163.17 L 933.33 168.68 L 935.74 174.42 L 938.04 180.39 L 940.22 186.60 L 942.27 193.09 L 944.21 199.85 L 946.03 206.92 L 947.74 214.32 L 949.34 222.08 L 950.81 230.24 L 952.18 238.85 L 953.44 247.94 L 954.58 257.61 L 955.61 267.92 L 956.54 278.99 L 957.35 290.98 L 958.05 304.08 L 958.65 318.62 L 959.14 335.07 L 959.51 354.26 L 959.78 377.85 L 959.95 410.32 L 960.00 512.00 Z" fill="#1C1C1E"/><path d="M286 562 L286 486 A226 226 0 0 1 738 486 L738 562" fill="none" stroke="#FFFFFF" stroke-width="54" stroke-linecap="round" stroke-linejoin="round"/><rect x="223" y="526" width="126" height="256" rx="60" fill="#FFFFFF"/><rect x="675" y="526" width="126" height="256" rx="60" fill="#FFFFFF"/></svg>