<svg xmlns="http://www.w3.org/2000/svg" width="900" height="392" viewBox="0 0 900 392" font-family="-apple-system, BlinkMacSystemFont, 'Segoe UI', Roboto, Helvetica, Arial, sans-serif" role="img" aria-label="EARS Bridge lines of code: 8,235 across 19 releases">
  <rect x="0.5" y="0.5" width="899" height="391" rx="14" fill="#15171C" stroke="#282B32"/>
  <text x="56" y="46" font-size="12" letter-spacing="1.5" fill="#9AA0AA">LINES OF CODE</text>
  <text x="56" y="94" font-size="46" font-weight="700" fill="#F5F5F7">8,235</text>
  <text x="198" y="94" font-size="18" fill="#6B7079">lines</text>
  <text x="56" y="118" font-size="13" fill="#9AA0AA">5,563 in src · 2,672 in tests · updated 2026-06-20</text>
  <line x1="56" y1="300.0" x2="868" y2="300.0" stroke="#23262D" stroke-width="1"/><text x="46" y="304.0" text-anchor="end" font-size="11" fill="#6B7079">0</text><line x1="56" y1="258.5" x2="868" y2="258.5" stroke="#23262D" stroke-width="1"/><text x="46" y="262.5" text-anchor="end" font-size="11" fill="#6B7079">2.5k</text><line x1="56" y1="217.0" x2="868" y2="217.0" stroke="#23262D" stroke-width="1"/><text x="46" y="221.0" text-anchor="end" font-size="11" fill="#6B7079">5k</text><line x1="56" y1="175.5" x2="868" y2="175.5" stroke="#23262D" stroke-width="1"/><text x="46" y="179.5" text-anchor="end" font-size="11" fill="#6B7079">7.5k</text><line x1="56" y1="134.0" x2="868" y2="134.0" stroke="#23262D" stroke-width="1"/><text x="46" y="138.0" text-anchor="end" font-size="11" fill="#6B7079">10k</text>
  <path d="M56.0 236.0 L98.7 236.0 L141.5 232.7 L184.2 232.0 L226.9 231.8 L269.7 230.6 L312.4 209.4 L355.2 206.2 L397.9 205.5 L440.6 230.1 L483.4 229.8 L526.1 228.9 L568.8 224.0 L611.6 217.5 L654.3 217.3 L697.1 201.9 L739.8 201.8 L782.5 201.9 L825.3 201.8 L868.0 163.3 L868.0 300.0 L56.0 300.0 Z" fill="#0A84FF" fill-opacity="0.12"/>
  <path d="M56.0 236.0 L98.7 236.0 L141.5 232.7 L184.2 232.0 L226.9 231.8 L269.7 230.6 L312.4 209.4 L355.2 206.2 L397.9 205.5 L440.6 230.1 L483.4 229.8 L526.1 228.9 L568.8 224.0 L611.6 217.5 L654.3 217.3 L697.1 201.9 L739.8 201.8 L782.5 201.9 L825.3 201.8 L868.0 163.3" fill="none" stroke="#0A84FF" stroke-width="2.5" stroke-linejoin="round" stroke-linecap="round"/>
  <circle cx="56.0" cy="236.0" r="3.5" fill="#0A84FF"/><circle cx="868.0" cy="163.3" r="3.5" fill="#0A84FF"/>
  <text x="56" y="322" font-size="11" fill="#6B7079">2026-06-14</text><text x="462" y="322" text-anchor="middle" font-size="11" fill="#6B7079">19 releases</text><text x="868" y="322" text-anchor="end" font-size="11" fill="#6B7079">2026-06-20</text>
  <circle cx="60" cy="342" r="4" fill="#0A84FF"/><text x="70" y="346" font-size="11" fill="#9AA0AA">C++ 6,557</text><circle cx="167.6" cy="342" r="4" fill="#5AC8FA"/><text x="177.6" y="346" font-size="11" fill="#9AA0AA">Headers 1,501</text><circle cx="304" cy="342" r="4" fill="#BF8CFF"/><text x="314" y="346" font-size="11" fill="#9AA0AA">Obj-C++ 177</text>
  <rect x="56.0" y="358" width="645.0" height="8" rx="2" fill="#0A84FF"/><rect x="702.5" y="358" width="146.5" height="8" rx="2" fill="#5AC8FA"/><rect x="850.5" y="358" width="16.0" height="8" rx="2" fill="#BF8CFF"/>
</svg>
