<svg xmlns="http://www.w3.org/2000/svg" width="900" height="392" viewBox="0 0 900 392" font-family="-apple-system, BlinkMacSystemFont, 'Segoe UI', Roboto, Helvetica, Arial, sans-serif" role="img" aria-label="EARS Bridge lines of code: 18,017 across 20 releases">
  <rect x="0.5" y="0.5" width="899" height="391" rx="14" fill="#15171C" stroke="#282B32"/>
  <text x="56" y="46" font-size="12" letter-spacing="1.5" fill="#9AA0AA">LINES OF CODE</text>
  <text x="56" y="94" font-size="46" font-weight="700" fill="#F5F5F7">18,017</text>
  <text x="224" y="94" font-size="18" fill="#6B7079">lines</text>
  <text x="56" y="118" font-size="13" fill="#9AA0AA">11,502 in src · 6,515 in tests · updated 2026-06-21</text>
  <line x1="56" y1="300.0" x2="868" y2="300.0" stroke="#23262D" stroke-width="1"/><text x="46" y="304.0" text-anchor="end" font-size="11" fill="#6B7079">0</text><line x1="56" y1="258.5" x2="868" y2="258.5" stroke="#23262D" stroke-width="1"/><text x="46" y="262.5" text-anchor="end" font-size="11" fill="#6B7079">5k</text><line x1="56" y1="217.0" x2="868" y2="217.0" stroke="#23262D" stroke-width="1"/><text x="46" y="221.0" text-anchor="end" font-size="11" fill="#6B7079">10k</text><line x1="56" y1="175.5" x2="868" y2="175.5" stroke="#23262D" stroke-width="1"/><text x="46" y="179.5" text-anchor="end" font-size="11" fill="#6B7079">15k</text><line x1="56" y1="134.0" x2="868" y2="134.0" stroke="#23262D" stroke-width="1"/><text x="46" y="138.0" text-anchor="end" font-size="11" fill="#6B7079">20k</text>
  <path d="M56.0 268.0 L96.6 268.0 L137.2 266.4 L177.8 266.0 L218.4 265.9 L259.0 265.3 L299.6 254.7 L340.2 253.1 L380.8 252.7 L421.4 265.1 L462.0 264.9 L502.6 264.4 L543.2 262.0 L583.8 258.8 L624.4 258.6 L665.0 251.0 L705.6 250.9 L746.2 250.9 L786.8 250.9 L827.4 151.3 L868.0 150.5 L868.0 300.0 L56.0 300.0 Z" fill="#0A84FF" fill-opacity="0.12"/>
  <path d="M56.0 268.0 L96.6 268.0 L137.2 266.4 L177.8 266.0 L218.4 265.9 L259.0 265.3 L299.6 254.7 L340.2 253.1 L380.8 252.7 L421.4 265.1 L462.0 264.9 L502.6 264.4 L543.2 262.0 L583.8 258.8 L624.4 258.6 L665.0 251.0 L705.6 250.9 L746.2 250.9 L786.8 250.9 L827.4 151.3 L868.0 150.5" fill="none" stroke="#0A84FF" stroke-width="2.5" stroke-linejoin="round" stroke-linecap="round"/>
  <circle cx="56.0" cy="268.0" r="3.5" fill="#0A84FF"/><circle cx="868.0" cy="150.5" r="3.5" fill="#0A84FF"/>
  <text x="56" y="322" font-size="11" fill="#6B7079">2026-06-14</text><text x="462" y="322" text-anchor="middle" font-size="11" fill="#6B7079">20 releases</text><text x="868" y="322" text-anchor="end" font-size="11" fill="#6B7079">2026-06-21</text>
  <circle cx="60" cy="342" r="4" fill="#0A84FF"/><text x="70" y="346" font-size="11" fill="#9AA0AA">C++ 14,408</text><circle cx="174.8" cy="342" r="4" fill="#5AC8FA"/><text x="184.8" y="346" font-size="11" fill="#9AA0AA">Headers 3,428</text><circle cx="311.20000000000005" cy="342" r="4" fill="#BF8CFF"/><text x="321.20000000000005" y="346" font-size="11" fill="#9AA0AA">Obj-C++ 181</text>
  <rect x="56.0" y="358" width="647.8" height="8" rx="2" fill="#0A84FF"/><rect x="705.3" y="358" width="153.0" height="8" rx="2" fill="#5AC8FA"/><rect x="859.8" y="358" width="6.7" height="8" rx="2" fill="#BF8CFF"/>
</svg>
