<svg xmlns="http://www.w3.org/2000/svg" width="900" height="392" viewBox="0 0 900 392" font-family="-apple-system, BlinkMacSystemFont, 'Segoe UI', Roboto, Helvetica, Arial, sans-serif" role="img" aria-label="EARS Bridge lines of code: 24,246 across 22 releases">
  <rect x="0.5" y="0.5" width="899" height="391" rx="14" fill="#15171C" stroke="#282B32"/>
  <text x="56" y="46" font-size="12" letter-spacing="1.5" fill="#9AA0AA">LINES OF CODE</text>
  <text x="56" y="94" font-size="46" font-weight="700" fill="#F5F5F7">24,246</text>
  <text x="224" y="94" font-size="18" fill="#6B7079">lines</text>
  <text x="56" y="118" font-size="13" fill="#9AA0AA">14,301 in src · 9,945 in tests · updated 2026-07-10</text>
  <line x1="56" y1="300.0" x2="868" y2="300.0" stroke="#23262D" stroke-width="1"/><text x="46" y="304.0" text-anchor="end" font-size="11" fill="#6B7079">0</text><line x1="56" y1="258.5" x2="868" y2="258.5" stroke="#23262D" stroke-width="1"/><text x="46" y="262.5" text-anchor="end" font-size="11" fill="#6B7079">7k</text><line x1="56" y1="217.0" x2="868" y2="217.0" stroke="#23262D" stroke-width="1"/><text x="46" y="221.0" text-anchor="end" font-size="11" fill="#6B7079">14k</text><line x1="56" y1="175.5" x2="868" y2="175.5" stroke="#23262D" stroke-width="1"/><text x="46" y="179.5" text-anchor="end" font-size="11" fill="#6B7079">21k</text><line x1="56" y1="134.0" x2="868" y2="134.0" stroke="#23262D" stroke-width="1"/><text x="46" y="138.0" text-anchor="end" font-size="11" fill="#6B7079">28k</text>
  <path d="M56.0 277.1 L92.9 277.1 L129.8 276.0 L166.7 275.7 L203.6 275.7 L240.5 275.2 L277.5 267.6 L314.4 266.5 L351.3 266.2 L388.2 275.0 L425.1 274.9 L462.0 274.6 L498.9 272.9 L535.8 270.5 L572.7 270.5 L609.6 265.0 L646.5 264.9 L683.5 265.0 L720.4 264.9 L757.3 193.8 L794.2 193.2 L831.1 165.1 L868.0 156.3 L868.0 300.0 L56.0 300.0 Z" fill="#0A84FF" fill-opacity="0.12"/>
  <path d="M56.0 277.1 L92.9 277.1 L129.8 276.0 L166.7 275.7 L203.6 275.7 L240.5 275.2 L277.5 267.6 L314.4 266.5 L351.3 266.2 L388.2 275.0 L425.1 274.9 L462.0 274.6 L498.9 272.9 L535.8 270.5 L572.7 270.5 L609.6 265.0 L646.5 264.9 L683.5 265.0 L720.4 264.9 L757.3 193.8 L794.2 193.2 L831.1 165.1 L868.0 156.3" fill="none" stroke="#0A84FF" stroke-width="2.5" stroke-linejoin="round" stroke-linecap="round"/>
  <circle cx="56.0" cy="277.1" r="3.5" fill="#0A84FF"/><circle cx="868.0" cy="156.3" r="3.5" fill="#0A84FF"/>
  <text x="56" y="322" font-size="11" fill="#6B7079">2026-06-14</text><text x="462" y="322" text-anchor="middle" font-size="11" fill="#6B7079">22 releases</text><text x="868" y="322" text-anchor="end" font-size="11" fill="#6B7079">2026-07-10</text>
  <circle cx="60" cy="342" r="4" fill="#0A84FF"/><text x="70" y="346" font-size="11" fill="#9AA0AA">C++ 18,239</text><circle cx="174.8" cy="342" r="4" fill="#5AC8FA"/><text x="184.8" y="346" font-size="11" fill="#9AA0AA">Headers 5,814</text><circle cx="311.20000000000005" cy="342" r="4" fill="#BF8CFF"/><text x="321.20000000000005" y="346" font-size="11" fill="#9AA0AA">Obj-C++ 193</text>
  <rect x="56.0" y="358" width="609.3" height="8" rx="2" fill="#0A84FF"/><rect x="666.8" y="358" width="193.2" height="8" rx="2" fill="#5AC8FA"/><rect x="861.5" y="358" width="5.0" height="8" rx="2" fill="#BF8CFF"/>
</svg>
